<svg width="145" height="31" viewBox="0 0 145 31" fill="none" xmlns="http://www.w3.org/2000/svg">
<path d="M10.1436 30.4375C8.7373 30.4375 7.46126 30.0859 6.31543 29.3828C5.1696 28.7057 4.19303 27.7682 3.38574 26.5703C2.60449 25.3724 1.99251 23.9661 1.5498 22.3516C1.13314 20.737 0.924805 18.9922 0.924805 17.1172C0.924805 14.4349 1.2373 12.0391 1.8623 9.92969C2.4873 7.82031 3.30762 6.03646 4.32324 4.57812C5.36491 3.11979 6.53678 2 7.83887 1.21875C9.16699 0.4375 10.5212 0.046875 11.9014 0.046875C13.2035 0.046875 14.2972 0.28125 15.1826 0.75C16.068 1.21875 16.7712 1.81771 17.292 2.54688C17.8389 3.27604 18.2035 4.08333 18.3857 4.96875C18.5941 5.82812 18.6592 6.64844 18.5811 7.42969C18.4508 8.9401 17.93 10.1641 17.0186 11.1016C16.1331 12.0391 15.1045 12.5078 13.9326 12.5078C13.542 12.4818 13.1383 12.4167 12.7217 12.3125C12.3571 12.2083 11.9795 12.0521 11.5889 11.8438C11.1982 11.6354 10.8337 11.3359 10.4951 10.9453C11.5889 11.0234 12.4352 10.8021 13.0342 10.2812C13.6331 9.76042 14.0758 9.17448 14.3623 8.52344C14.6748 7.76823 14.8571 6.88281 14.9092 5.86719C14.9092 5.29427 14.818 4.79948 14.6357 4.38281C14.4535 3.9401 14.2061 3.58854 13.8936 3.32812C13.6071 3.04167 13.2946 2.83333 12.9561 2.70312C12.6175 2.57292 12.292 2.50781 11.9795 2.50781C11.2764 2.50781 10.5081 2.78125 9.6748 3.32812C8.86751 3.875 8.09928 4.70833 7.37012 5.82812C6.64095 6.92188 6.02897 8.32812 5.53418 10.0469C5.06543 11.7396 4.83105 13.7578 4.83105 16.1016C4.83105 18.4193 5.03939 20.3203 5.45605 21.8047C5.87272 23.263 6.38053 24.4089 6.97949 25.2422C7.57845 26.0495 8.20345 26.6094 8.85449 26.9219C9.53158 27.2083 10.1045 27.3516 10.5732 27.3516C11.4847 27.2734 12.318 26.9609 13.0732 26.4141C13.7243 25.9453 14.3363 25.2031 14.9092 24.1875C15.5081 23.1458 15.9118 21.6615 16.1201 19.7344C16.4587 19.7604 16.7321 19.8385 16.9404 19.9688C17.1748 20.099 17.3701 20.2292 17.5264 20.3594C17.6826 20.5156 17.8258 20.6979 17.9561 20.9062C17.9821 20.9323 17.9821 21.1927 17.9561 21.6875C17.93 22.1823 17.8389 22.7812 17.6826 23.4844C17.5264 24.1875 17.279 24.9427 16.9404 25.75C16.6279 26.5573 16.1722 27.3125 15.5732 28.0156C15.0003 28.7188 14.2712 29.2917 13.3857 29.7344C12.5003 30.2031 11.4196 30.4375 10.1436 30.4375ZM24.0857 13.1719C24.0857 13.0156 24.2941 12.8464 24.7107 12.6641C25.1274 12.4818 25.5831 12.3385 26.0779 12.2344C26.5988 12.1042 27.0675 12.0391 27.4842 12.0391C27.9269 12.013 28.1482 12.1042 28.1482 12.3125C28.1482 12.7031 28.1222 13.263 28.0701 13.9922C28.018 14.6953 27.9529 15.4505 27.8748 16.2578C27.7967 17.0391 27.7186 17.8333 27.6404 18.6406C27.5623 19.4219 27.5102 20.0859 27.4842 20.6328C27.4321 21.2057 27.38 21.8307 27.3279 22.5078C27.2758 23.0807 27.2368 23.7188 27.2107 24.4219C27.1847 25.125 27.1847 25.8411 27.2107 26.5703C27.2107 26.7005 27.0805 26.8307 26.8201 26.9609C26.5597 27.0911 26.2732 27.1823 25.9607 27.2344C25.6482 27.3125 25.3488 27.3516 25.0623 27.3516C24.7758 27.3516 24.6196 27.2995 24.5936 27.1953C24.5415 27.0911 24.4894 26.9089 24.4373 26.6484C24.3852 26.388 24.3331 26.0234 24.2811 25.5547C24.229 25.0599 24.1899 24.4349 24.1639 23.6797C24.1378 22.8984 24.1508 21.9609 24.2029 20.8672C24.3071 18.7057 24.3201 17.0391 24.242 15.8672C24.1639 14.6693 24.1118 13.7708 24.0857 13.1719ZM26.8201 5.39844C27.341 5.39844 27.8357 5.55469 28.3045 5.86719C28.7732 6.17969 29.0076 6.59635 29.0076 7.11719C29.0076 7.50781 28.9035 7.88542 28.6951 8.25C28.5128 8.61458 28.2785 8.9401 27.992 9.22656C27.7055 9.51302 27.38 9.7474 27.0154 9.92969C26.6508 10.0859 26.3123 10.1641 25.9998 10.1641C25.5831 10.1641 25.2446 10.099 24.9842 9.96875C24.7238 9.8125 24.5154 9.64323 24.3592 9.46094C24.229 9.2526 24.1378 9.03125 24.0857 8.79688C24.0337 8.5625 24.0076 8.34115 24.0076 8.13281C24.0076 7.8724 24.0467 7.58594 24.1248 7.27344C24.2029 6.9349 24.3462 6.63542 24.5545 6.375C24.7628 6.08854 25.0493 5.85417 25.4139 5.67188C25.7785 5.48958 26.2472 5.39844 26.8201 5.39844ZM25.8436 9.03125C25.9998 9.03125 26.1691 8.97917 26.3514 8.875C26.5597 8.74479 26.742 8.60156 26.8982 8.44531C27.0805 8.28906 27.2238 8.11979 27.3279 7.9375C27.4581 7.75521 27.5232 7.59896 27.5232 7.46875C27.5232 7.26042 27.4191 7.15625 27.2107 7.15625C27.0805 7.15625 26.9113 7.20833 26.7029 7.3125C26.5206 7.41667 26.3383 7.54688 26.1561 7.70312C25.9738 7.83333 25.8175 7.98958 25.6873 8.17188C25.5831 8.32812 25.5311 8.48438 25.5311 8.64062C25.5311 8.90104 25.6352 9.03125 25.8436 9.03125ZM48.7311 9.61719C48.4446 9.5651 48.054 9.51302 47.5592 9.46094C47.0904 9.40885 46.6087 9.36979 46.1139 9.34375C45.541 9.31771 44.929 9.30469 44.2779 9.30469C43.6269 9.2526 42.8066 9.2526 41.817 9.30469C40.8535 9.33073 39.8378 9.34375 38.7701 9.34375C38.7441 10.0208 38.692 10.7109 38.6139 11.4141C38.5618 12.1172 38.5097 12.8073 38.4576 13.4844C38.3274 14.7344 38.2102 16.0104 38.1061 17.3125C38.0279 18.6146 37.9889 19.8516 37.9889 21.0234C37.9889 22.1953 38.054 23.263 38.1842 24.2266C38.3404 25.1641 38.6139 25.9062 39.0045 26.4531C38.692 26.6875 38.3535 26.8698 37.9889 27C37.6243 27.1042 37.2988 27.1823 37.0123 27.2344C36.6738 27.3125 36.3352 27.3516 35.9967 27.3516C35.6842 27.3516 35.4238 27.2474 35.2154 27.0391C35.0071 26.8307 34.8899 26.4661 34.8639 25.9453C34.8118 25.0599 34.7988 24.1745 34.8248 23.2891C34.8769 22.3776 34.929 21.4271 34.9811 20.4375C35.0592 19.4479 35.1373 18.3932 35.2154 17.2734C35.2936 16.1276 35.3717 14.8776 35.4498 13.5234C35.5279 12.1172 35.567 10.75 35.567 9.42188C34.5774 9.44792 33.7441 9.46094 33.067 9.46094C32.3899 9.46094 32.0123 9.44792 31.9342 9.42188C31.8561 9.36979 31.7649 9.2526 31.6607 9.07031C31.5566 8.91406 31.4264 8.67969 31.2701 8.36719C31.0878 8.05469 30.8665 7.61198 30.6061 7.03906C31.1008 7.03906 31.6477 7.03906 32.2467 7.03906C32.8196 7.03906 33.3535 7.02604 33.8482 7C34.4212 6.97396 34.9941 6.94792 35.567 6.92188C35.541 6.50521 35.5279 6.0625 35.5279 5.59375C35.5019 5.22917 35.4889 4.82552 35.4889 4.38281C35.4889 3.91406 35.4758 3.48438 35.4498 3.09375C35.4498 2.9375 35.6321 2.75521 35.9967 2.54688C36.3873 2.3125 36.804 2.10417 37.2467 1.92188C37.6894 1.73958 38.093 1.6224 38.4576 1.57031C38.8482 1.51823 39.0436 1.60938 39.0436 1.84375C39.0436 2.07812 39.0305 2.65104 39.0045 3.5625C39.0045 4.44792 38.9785 5.52865 38.9264 6.80469C39.1868 6.80469 39.3821 6.79167 39.5123 6.76562C40.8925 6.71354 41.9993 6.66146 42.8326 6.60938C43.692 6.53125 44.3951 6.51823 44.942 6.57031C45.4889 6.6224 45.9706 6.7526 46.3873 6.96094C46.804 7.16927 47.2727 7.50781 47.7936 7.97656C47.9758 8.13281 48.1321 8.30208 48.2623 8.48438C48.3925 8.64062 48.4967 8.82292 48.5748 9.03125C48.679 9.21354 48.7311 9.40885 48.7311 9.61719ZM45.6029 13.1719C45.6029 13.0156 45.8113 12.8464 46.2279 12.6641C46.6446 12.4818 47.1003 12.3385 47.5951 12.2344C48.1159 12.1042 48.5847 12.0391 49.0014 12.0391C49.4441 12.013 49.6654 12.1042 49.6654 12.3125C49.6654 12.7031 49.6394 13.263 49.5873 13.9922C49.5352 14.6953 49.4701 15.4505 49.392 16.2578C49.3139 17.0391 49.2357 17.8333 49.1576 18.6406C49.0795 19.4219 49.0274 20.0859 49.0014 20.6328C48.9493 21.2057 48.8972 21.8307 48.8451 22.5078C48.793 23.0807 48.754 23.7188 48.7279 24.4219C48.7019 25.125 48.7019 25.8411 48.7279 26.5703C48.7279 26.7005 48.5977 26.8307 48.3373 26.9609C48.0769 27.0911 47.7904 27.1823 47.4779 27.2344C47.1654 27.3125 46.8659 27.3516 46.5795 27.3516C46.293 27.3516 46.1368 27.2995 46.1107 27.1953C46.0587 27.0911 46.0066 26.9089 45.9545 26.6484C45.9024 26.388 45.8503 26.0234 45.7982 25.5547C45.7462 25.0599 45.7071 24.4349 45.6811 23.6797C45.655 22.8984 45.668 21.9609 45.7201 20.8672C45.8243 18.7057 45.8373 17.0391 45.7592 15.8672C45.6811 14.6693 45.629 13.7708 45.6029 13.1719ZM48.3373 5.39844C48.8581 5.39844 49.3529 5.55469 49.8217 5.86719C50.2904 6.17969 50.5248 6.59635 50.5248 7.11719C50.5248 7.50781 50.4206 7.88542 50.2123 8.25C50.03 8.61458 49.7956 8.9401 49.5092 9.22656C49.2227 9.51302 48.8972 9.7474 48.5326 9.92969C48.168 10.0859 47.8295 10.1641 47.517 10.1641C47.1003 10.1641 46.7618 10.099 46.5014 9.96875C46.2409 9.8125 46.0326 9.64323 45.8764 9.46094C45.7462 9.2526 45.655 9.03125 45.6029 8.79688C45.5508 8.5625 45.5248 8.34115 45.5248 8.13281C45.5248 7.8724 45.5639 7.58594 45.642 7.27344C45.7201 6.9349 45.8633 6.63542 46.0717 6.375C46.28 6.08854 46.5665 5.85417 46.9311 5.67188C47.2956 5.48958 47.7644 5.39844 48.3373 5.39844ZM47.3607 9.03125C47.517 9.03125 47.6863 8.97917 47.8686 8.875C48.0769 8.74479 48.2592 8.60156 48.4154 8.44531C48.5977 8.28906 48.7409 8.11979 48.8451 7.9375C48.9753 7.75521 49.0404 7.59896 49.0404 7.46875C49.0404 7.26042 48.9363 7.15625 48.7279 7.15625C48.5977 7.15625 48.4284 7.20833 48.2201 7.3125C48.0378 7.41667 47.8555 7.54688 47.6732 7.70312C47.4909 7.83333 47.3347 7.98958 47.2045 8.17188C47.1003 8.32812 47.0482 8.48438 47.0482 8.64062C47.0482 8.90104 47.1524 9.03125 47.3607 9.03125ZM60.8732 19.9297C60.4305 20.2943 60.1831 20.9453 60.1311 21.8828C60.105 22.7943 60.2613 23.7318 60.5998 24.6953C60.9644 25.6328 61.5113 26.4661 62.2404 27.1953C62.9696 27.9245 63.8811 28.2891 64.9748 28.2891C65.6779 28.2891 66.2769 28.1198 66.7717 27.7812C67.2925 27.4427 67.7092 27.026 68.0217 26.5312C68.3602 26.0104 68.6076 25.4375 68.7639 24.8125C68.9201 24.1875 68.9982 23.5755 68.9982 22.9766C68.9982 22.1172 68.829 21.401 68.4904 20.8281C68.1779 20.2552 67.7482 19.7604 67.2014 19.3438C66.6805 18.901 66.0686 18.5365 65.3654 18.25C64.6883 17.9375 63.9982 17.625 63.2951 17.3125C62.6441 17.0521 61.8628 16.7266 60.9514 16.3359C60.0399 15.9193 59.1675 15.3854 58.3342 14.7344C57.5008 14.0573 56.7847 13.237 56.1857 12.2734C55.6128 11.2839 55.3264 10.0729 55.3264 8.64062C55.3264 7.70312 55.5738 6.7526 56.0686 5.78906C56.5633 4.82552 57.2665 3.95312 58.1779 3.17188C59.0894 2.36458 60.1831 1.71354 61.4592 1.21875C62.7613 0.723958 64.2196 0.476562 65.8342 0.476562C67.4227 0.476562 68.7118 0.619792 69.7014 0.90625C70.6909 1.19271 71.4592 1.57031 72.0061 2.03906C72.5529 2.48177 72.9175 2.97656 73.0998 3.52344C73.3081 4.04427 73.4123 4.53906 73.4123 5.00781C73.4123 5.47656 73.2691 5.95833 72.9826 6.45312C72.6962 6.92188 72.3576 7.36458 71.967 7.78125C71.5764 8.17188 71.1727 8.52344 70.7561 8.83594C70.3394 9.1224 70.0008 9.31771 69.7404 9.42188C69.8706 9.08333 70.0008 8.61458 70.1311 8.01562C70.2613 7.41667 70.2222 6.81771 70.0139 6.21875C69.8316 5.61979 69.3758 5.09896 68.6467 4.65625C67.9436 4.21354 66.7977 3.99219 65.2092 3.99219C64.2977 3.99219 63.4123 4.13542 62.5529 4.42188C61.6936 4.70833 60.9253 5.08594 60.2482 5.55469C59.5972 5.9974 59.0764 6.50521 58.6857 7.07812C58.2951 7.65104 58.0998 8.23698 58.0998 8.83594C58.0998 9.40885 58.2951 9.94271 58.6857 10.4375C59.1024 10.9062 59.6493 11.362 60.3264 11.8047C61.0295 12.2214 61.8238 12.638 62.7092 13.0547C63.6206 13.4714 64.5712 13.888 65.5607 14.3047C66.5243 14.7214 67.4748 15.1771 68.4123 15.6719C69.3498 16.1406 70.1831 16.6875 70.9123 17.3125C71.6675 17.9375 72.2665 18.6406 72.7092 19.4219C73.1519 20.2031 73.3732 21.1016 73.3732 22.1172C73.3732 23.2109 73.1649 24.2656 72.7482 25.2812C72.3576 26.2708 71.7847 27.1432 71.0295 27.8984C70.3003 28.6536 69.4019 29.2526 68.3342 29.6953C67.2665 30.1641 66.0555 30.3984 64.7014 30.3984C63.5034 30.3984 62.3706 30.2031 61.3029 29.8125C60.2352 29.4219 59.2977 28.9141 58.4904 28.2891C57.7092 27.6641 57.0842 26.974 56.6154 26.2188C56.1467 25.4635 55.9123 24.7214 55.9123 23.9922C55.9123 23.2109 56.0816 22.5469 56.4201 22C56.7847 21.4531 57.2274 21.0234 57.7482 20.7109C58.2691 20.3724 58.8029 20.138 59.3498 20.0078C59.9227 19.8776 60.4305 19.8516 60.8732 19.9297ZM84.3076 27.4297C82.4847 27.4297 81.0785 26.8177 80.0889 25.5938C79.0993 24.3698 78.6045 22.7682 78.6045 20.7891C78.6045 19.4089 78.7998 18.1198 79.1904 16.9219C79.6071 15.6979 80.154 14.6432 80.8311 13.7578C81.5081 12.8724 82.2894 12.1823 83.1748 11.6875C84.0863 11.1667 85.0368 10.9062 86.0264 10.9062C86.9899 10.9062 87.8102 11.2578 88.4873 11.9609C89.1644 12.638 89.5029 13.6146 89.5029 14.8906C89.5029 15.724 89.3206 16.5573 88.9561 17.3906C88.5915 18.1979 88.1097 18.9271 87.5107 19.5781C86.9378 20.2031 86.2998 20.7109 85.5967 21.1016C84.8936 21.4922 84.2165 21.6875 83.5654 21.6875C83.1488 21.6875 82.7972 21.6354 82.5107 21.5312C82.2243 21.4271 81.9639 21.2708 81.7295 21.0625C81.8076 22.5469 82.1331 23.5885 82.7061 24.1875C83.279 24.7604 84.0212 25.0469 84.9326 25.0469C85.5576 25.0469 86.1045 24.9167 86.5732 24.6562C87.068 24.3958 87.4847 24.0964 87.8232 23.7578C88.1618 23.4193 88.4352 23.0807 88.6436 22.7422C88.8519 22.3776 88.9951 22.1042 89.0732 21.9219C89.1514 21.7656 89.2816 21.6875 89.4639 21.6875C89.6722 21.6875 89.7764 21.8438 89.7764 22.1562C89.7764 22.4427 89.6722 22.8854 89.4639 23.4844C89.2816 24.0573 88.9691 24.6432 88.5264 25.2422C88.0837 25.8151 87.5107 26.3229 86.8076 26.7656C86.1305 27.2083 85.2972 27.4297 84.3076 27.4297ZM86.1045 12.5859C85.9482 12.5859 85.6488 12.7552 85.2061 13.0938C84.7894 13.4062 84.3337 13.875 83.8389 14.5C83.3701 15.125 82.9274 15.8802 82.5107 16.7656C82.1201 17.625 81.8727 18.6016 81.7686 19.6953C83.3311 19.3307 84.568 18.7578 85.4795 17.9766C86.391 17.1953 86.8467 16.0495 86.8467 14.5391C86.8467 13.7839 86.7555 13.276 86.5732 13.0156C86.391 12.7292 86.2347 12.5859 86.1045 12.5859ZM100.281 24.9688C100.515 24.9688 100.828 24.5521 101.219 23.7188C101.609 22.8854 101.974 21.8828 102.312 20.7109C102.677 19.5391 102.963 18.3281 103.172 17.0781C103.406 15.8281 103.471 14.7734 103.367 13.9141C103.315 13.6276 103.237 13.3932 103.133 13.2109C103.054 13.0286 102.95 12.8333 102.82 12.625C102.976 12.4167 103.172 12.2604 103.406 12.1562C103.64 12.026 103.862 11.9349 104.07 11.8828C104.331 11.8047 104.591 11.7526 104.851 11.7266C105.476 11.7005 105.932 11.8047 106.219 12.0391C106.375 12.1953 106.453 12.5599 106.453 13.1328C106.453 13.7057 106.388 14.3828 106.258 15.1641C106.153 15.9193 105.997 16.7266 105.789 17.5859C105.607 18.4193 105.398 19.1875 105.164 19.8906C104.929 20.5677 104.643 21.3099 104.304 22.1172C103.966 22.8984 103.614 23.6536 103.25 24.3828C102.885 25.0859 102.521 25.6979 102.156 26.2188C101.791 26.7135 101.479 27.013 101.219 27.1172C100.672 27.3255 100.125 27.4297 99.5779 27.4297C99.0571 27.4297 98.7316 27.3646 98.6014 27.2344C98.5493 27.1823 98.4321 27 98.2498 26.6875C98.0675 26.375 97.8592 25.9714 97.6248 25.4766C97.4165 24.9818 97.1821 24.4089 96.9217 23.7578C96.6873 23.0807 96.479 22.3646 96.2967 21.6094C96.1144 20.8542 95.9842 20.0339 95.9061 19.1484C95.8279 18.263 95.7368 17.4036 95.6326 16.5703C95.5545 15.7109 95.4373 14.9167 95.2811 14.1875C95.1248 13.4583 94.8904 12.8594 94.5779 12.3906L96.4139 11.6484C96.5701 11.5703 96.7524 11.5052 96.9607 11.4531C97.1691 11.375 97.3774 11.349 97.5857 11.375C97.7941 11.401 97.9764 11.5052 98.1326 11.6875C98.3149 11.8438 98.4321 12.1302 98.4842 12.5469C98.5363 13.0156 98.5753 13.5755 98.6014 14.2266C98.6534 14.8776 98.6925 15.5547 98.7186 16.2578C98.7706 16.9609 98.8227 17.6641 98.8748 18.3672C98.9269 19.0443 98.979 19.6562 99.0311 20.2031C99.0831 20.776 99.1482 21.349 99.2264 21.9219C99.3305 22.4948 99.4347 23.0026 99.5389 23.4453C99.6691 23.888 99.7863 24.2526 99.8904 24.5391C100.021 24.8255 100.151 24.9688 100.281 24.9688ZM122.622 25.0078C122.674 25.1901 122.752 25.3594 122.856 25.5156C122.934 25.6458 123.038 25.776 123.169 25.9062C123.325 26.0104 123.507 26.0755 123.715 26.1016C123.533 26.4661 123.351 26.7135 123.169 26.8438C123.064 26.9219 122.973 26.974 122.895 27C122.661 27.0781 122.309 27.1172 121.84 27.1172C121.372 27.1172 120.916 26.974 120.473 26.6875C120.317 26.5573 120.174 26.362 120.044 26.1016C119.913 25.8932 119.796 25.6068 119.692 25.2422C119.614 24.8516 119.549 24.3568 119.497 23.7578C119.132 24.5391 118.715 25.1641 118.247 25.6328C117.804 26.0755 117.361 26.401 116.919 26.6094C116.424 26.8958 115.916 27.0651 115.395 27.1172C114.744 27.1693 114.119 27.0651 113.52 26.8047C112.947 26.5182 112.452 26.1016 112.036 25.5547C111.645 24.9818 111.346 24.2917 111.137 23.4844C110.929 22.6771 110.864 21.7656 110.942 20.75C111.02 19.6823 111.228 18.7318 111.567 17.8984C111.906 17.0651 112.309 16.3229 112.778 15.6719C113.247 15.0208 113.741 14.474 114.262 14.0312C114.783 13.5625 115.278 13.1849 115.747 12.8984C116.241 12.5859 116.658 12.3646 116.997 12.2344C117.361 12.0781 117.596 11.987 117.7 11.9609C117.986 11.8828 118.234 11.8568 118.442 11.8828C118.65 11.9089 118.833 12.026 118.989 12.2344C119.041 12.3125 119.106 12.4036 119.184 12.5078C119.236 12.612 119.301 12.7552 119.379 12.9375C119.458 13.0938 119.523 13.276 119.575 13.4844C118.95 13.7708 118.364 14.0964 117.817 14.4609C117.27 14.7995 116.762 15.2161 116.294 15.7109C115.851 16.2057 115.46 16.8047 115.122 17.5078C114.783 18.2109 114.523 19.0703 114.34 20.0859C114.08 21.362 114.145 22.3906 114.536 23.1719C114.952 23.9531 115.512 24.2786 116.215 24.1484C116.632 24.0182 117.036 23.7708 117.426 23.4062C117.765 23.0938 118.116 22.625 118.481 22C118.872 21.375 119.236 20.5156 119.575 19.4219C119.705 17.8594 119.809 16.6354 119.887 15.75C119.991 14.8385 120.083 14.1484 120.161 13.6797C120.265 13.1328 120.343 12.7682 120.395 12.5859C120.473 12.4557 120.629 12.3385 120.864 12.2344C121.098 12.1042 121.359 12 121.645 11.9219C121.932 11.8438 122.192 11.8047 122.426 11.8047C122.661 11.7786 122.817 11.7786 122.895 11.8047C122.947 11.8307 122.973 12.1562 122.973 12.7812C122.973 13.3802 122.947 14.1484 122.895 15.0859C122.869 15.9974 122.83 17 122.778 18.0938C122.726 19.1615 122.674 20.1771 122.622 21.1406C122.596 22.1042 122.57 22.9505 122.544 23.6797C122.544 24.3828 122.57 24.8255 122.622 25.0078ZM137.072 17.6641C137.619 17.8984 138.139 18.276 138.634 18.7969C139.129 19.2917 139.441 20.0469 139.572 21.0625C139.676 21.9479 139.819 22.7422 140.001 23.4453C140.184 24.1484 140.444 24.7865 140.783 25.3594C141.121 25.9062 141.564 26.401 142.111 26.8438C142.684 27.2604 143.413 27.625 144.298 27.9375C144.064 28.1458 143.777 28.3151 143.439 28.4453C143.126 28.5755 142.827 28.6667 142.54 28.7188C142.202 28.8229 141.85 28.875 141.486 28.875C140.626 28.9531 139.923 28.8359 139.376 28.5234C138.829 28.237 138.4 27.8073 138.087 27.2344C137.775 26.6615 137.54 25.9974 137.384 25.2422C137.228 24.487 137.111 23.7057 137.033 22.8984C137.007 22.5599 136.968 22.2083 136.915 21.8438C136.863 21.4792 136.772 21.1276 136.642 20.7891C136.512 20.4505 136.329 20.138 136.095 19.8516C135.887 19.5651 135.613 19.3438 135.275 19.1875C134.702 19.6302 134.168 20.0208 133.673 20.3594C133.204 20.6719 132.788 20.9323 132.423 21.1406C132.449 22.5469 132.514 23.7057 132.619 24.6172C132.749 25.5286 132.918 26.1406 133.126 26.4531C132.944 26.5833 132.762 26.7005 132.579 26.8047C132.397 26.8828 132.241 26.9479 132.111 27C131.928 27.0781 131.759 27.1302 131.603 27.1562C131.082 27.3125 130.613 27.2865 130.197 27.0781C129.806 26.8958 129.598 26.388 129.572 25.5547L129.337 2.74219C129.337 2.53385 129.533 2.32552 129.923 2.11719C130.34 1.88281 130.796 1.70052 131.29 1.57031C131.785 1.4401 132.228 1.375 132.619 1.375C133.035 1.375 133.231 1.49219 133.204 1.72656C133.126 3.52344 133.048 5.21615 132.97 6.80469C132.892 8.39323 132.827 9.79948 132.775 11.0234C132.697 12.4557 132.632 13.7578 132.579 14.9297C132.527 15.6328 132.488 16.3099 132.462 16.9609C132.462 17.612 132.449 18.237 132.423 18.8359C132.918 18.4453 133.439 18.0156 133.986 17.5469C134.533 17.0781 135.053 16.5573 135.548 15.9844C136.043 15.4115 136.46 14.7995 136.798 14.1484C137.137 13.4714 137.332 12.7552 137.384 12C137.671 11.7917 137.957 11.6224 138.244 11.4922C138.556 11.3359 138.829 11.2188 139.064 11.1406C139.35 11.0365 139.611 10.9844 139.845 10.9844C140.444 10.9583 140.796 11.0885 140.9 11.375C140.978 11.5833 140.965 11.8958 140.861 12.3125C140.783 12.7031 140.587 13.1849 140.275 13.7578C139.988 14.3047 139.585 14.9167 139.064 15.5938C138.543 16.2448 137.879 16.9349 137.072 17.6641Z" fill="white"/>
</svg>
