<svg width="144" height="31" viewBox="0 0 144 31" fill="none" xmlns="http://www.w3.org/2000/svg">
<path d="M9.60938 30.4375C8.20312 30.4375 6.92708 30.0859 5.78125 29.3828C4.63542 28.7057 3.65885 27.7682 2.85156 26.5703C2.07031 25.3724 1.45833 23.9661 1.01562 22.3516C0.598958 20.737 0.390625 18.9922 0.390625 17.1172C0.390625 14.4349 0.703125 12.0391 1.32812 9.92969C1.95312 7.82031 2.77344 6.03646 3.78906 4.57812C4.83073 3.11979 6.0026 2 7.30469 1.21875C8.63281 0.4375 9.98698 0.046875 11.3672 0.046875C12.6693 0.046875 13.763 0.28125 14.6484 0.75C15.5339 1.21875 16.237 1.81771 16.7578 2.54688C17.3047 3.27604 17.6693 4.08333 17.8516 4.96875C18.0599 5.82812 18.125 6.64844 18.0469 7.42969C17.9167 8.9401 17.3958 10.1641 16.4844 11.1016C15.599 12.0391 14.5703 12.5078 13.3984 12.5078C13.0078 12.4818 12.6042 12.4167 12.1875 12.3125C11.8229 12.2083 11.4453 12.0521 11.0547 11.8438C10.6641 11.6354 10.2995 11.3359 9.96094 10.9453C11.0547 11.0234 11.901 10.8021 12.5 10.2812C13.099 9.76042 13.5417 9.17448 13.8281 8.52344C14.1406 7.76823 14.3229 6.88281 14.375 5.86719C14.375 5.29427 14.2839 4.79948 14.1016 4.38281C13.9193 3.9401 13.6719 3.58854 13.3594 3.32812C13.0729 3.04167 12.7604 2.83333 12.4219 2.70312C12.0833 2.57292 11.7578 2.50781 11.4453 2.50781C10.7422 2.50781 9.97396 2.78125 9.14062 3.32812C8.33333 3.875 7.5651 4.70833 6.83594 5.82812C6.10677 6.92188 5.49479 8.32812 5 10.0469C4.53125 11.7396 4.29688 13.7578 4.29688 16.1016C4.29688 18.4193 4.50521 20.3203 4.92188 21.8047C5.33854 23.263 5.84635 24.4089 6.44531 25.2422C7.04427 26.0495 7.66927 26.6094 8.32031 26.9219C8.9974 27.2083 9.57031 27.3516 10.0391 27.3516C10.9505 27.2734 11.7839 26.9609 12.5391 26.4141C13.1901 25.9453 13.8021 25.2031 14.375 24.1875C14.974 23.1458 15.3776 21.6615 15.5859 19.7344C15.9245 19.7604 16.1979 19.8385 16.4062 19.9688C16.6406 20.099 16.8359 20.2292 16.9922 20.3594C17.1484 20.5156 17.2917 20.6979 17.4219 20.9062C17.4479 20.9323 17.4479 21.1927 17.4219 21.6875C17.3958 22.1823 17.3047 22.7812 17.1484 23.4844C16.9922 24.1875 16.7448 24.9427 16.4062 25.75C16.0938 26.5573 15.638 27.3125 15.0391 28.0156C14.4661 28.7188 13.737 29.2917 12.8516 29.7344C11.9661 30.2031 10.8854 30.4375 9.60938 30.4375ZM23.5516 13.1719C23.5516 13.0156 23.7599 12.8464 24.1766 12.6641C24.5932 12.4818 25.049 12.3385 25.5438 12.2344C26.0646 12.1042 26.5333 12.0391 26.95 12.0391C27.3927 12.013 27.6141 12.1042 27.6141 12.3125C27.6141 12.7031 27.588 13.263 27.5359 13.9922C27.4839 14.6953 27.4188 15.4505 27.3406 16.2578C27.2625 17.0391 27.1844 17.8333 27.1063 18.6406C27.0281 19.4219 26.976 20.0859 26.95 20.6328C26.8979 21.2057 26.8458 21.8307 26.7938 22.5078C26.7417 23.0807 26.7026 23.7188 26.6766 24.4219C26.6505 25.125 26.6505 25.8411 26.6766 26.5703C26.6766 26.7005 26.5464 26.8307 26.2859 26.9609C26.0255 27.0911 25.7391 27.1823 25.4266 27.2344C25.1141 27.3125 24.8146 27.3516 24.5281 27.3516C24.2417 27.3516 24.0854 27.2995 24.0594 27.1953C24.0073 27.0911 23.9552 26.9089 23.9031 26.6484C23.851 26.388 23.799 26.0234 23.7469 25.5547C23.6948 25.0599 23.6557 24.4349 23.6297 23.6797C23.6036 22.8984 23.6167 21.9609 23.6688 20.8672C23.7729 18.7057 23.7859 17.0391 23.7078 15.8672C23.6297 14.6693 23.5776 13.7708 23.5516 13.1719ZM26.2859 5.39844C26.8068 5.39844 27.3016 5.55469 27.7703 5.86719C28.2391 6.17969 28.4734 6.59635 28.4734 7.11719C28.4734 7.50781 28.3693 7.88542 28.1609 8.25C27.9786 8.61458 27.7443 8.9401 27.4578 9.22656C27.1714 9.51302 26.8458 9.7474 26.4813 9.92969C26.1167 10.0859 25.7781 10.1641 25.4656 10.1641C25.049 10.1641 24.7104 10.099 24.45 9.96875C24.1896 9.8125 23.9813 9.64323 23.825 9.46094C23.6948 9.2526 23.6036 9.03125 23.5516 8.79688C23.4995 8.5625 23.4734 8.34115 23.4734 8.13281C23.4734 7.8724 23.5125 7.58594 23.5906 7.27344C23.6688 6.9349 23.812 6.63542 24.0203 6.375C24.2286 6.08854 24.5151 5.85417 24.8797 5.67188C25.2443 5.48958 25.713 5.39844 26.2859 5.39844ZM25.3094 9.03125C25.4656 9.03125 25.6349 8.97917 25.8172 8.875C26.0255 8.74479 26.2078 8.60156 26.3641 8.44531C26.5464 8.28906 26.6896 8.11979 26.7938 7.9375C26.924 7.75521 26.9891 7.59896 26.9891 7.46875C26.9891 7.26042 26.8849 7.15625 26.6766 7.15625C26.5464 7.15625 26.3771 7.20833 26.1688 7.3125C25.9865 7.41667 25.8042 7.54688 25.6219 7.70312C25.4396 7.83333 25.2833 7.98958 25.1531 8.17188C25.049 8.32812 24.9969 8.48438 24.9969 8.64062C24.9969 8.90104 25.101 9.03125 25.3094 9.03125ZM48.1969 9.61719C47.9104 9.5651 47.5198 9.51302 47.025 9.46094C46.5563 9.40885 46.0745 9.36979 45.5797 9.34375C45.0068 9.31771 44.3948 9.30469 43.7438 9.30469C43.0927 9.2526 42.2724 9.2526 41.2828 9.30469C40.3193 9.33073 39.3036 9.34375 38.2359 9.34375C38.2099 10.0208 38.1578 10.7109 38.0797 11.4141C38.0276 12.1172 37.9755 12.8073 37.9234 13.4844C37.7932 14.7344 37.676 16.0104 37.5719 17.3125C37.4938 18.6146 37.4547 19.8516 37.4547 21.0234C37.4547 22.1953 37.5198 23.263 37.65 24.2266C37.8063 25.1641 38.0797 25.9062 38.4703 26.4531C38.1578 26.6875 37.8193 26.8698 37.4547 27C37.0901 27.1042 36.7646 27.1823 36.4781 27.2344C36.1396 27.3125 35.801 27.3516 35.4625 27.3516C35.15 27.3516 34.8896 27.2474 34.6813 27.0391C34.4729 26.8307 34.3557 26.4661 34.3297 25.9453C34.2776 25.0599 34.2646 24.1745 34.2906 23.2891C34.3427 22.3776 34.3948 21.4271 34.4469 20.4375C34.525 19.4479 34.6031 18.3932 34.6813 17.2734C34.7594 16.1276 34.8375 14.8776 34.9156 13.5234C34.9938 12.1172 35.0328 10.75 35.0328 9.42188C34.0432 9.44792 33.2099 9.46094 32.5328 9.46094C31.8557 9.46094 31.4781 9.44792 31.4 9.42188C31.3219 9.36979 31.2307 9.2526 31.1266 9.07031C31.0224 8.91406 30.8922 8.67969 30.7359 8.36719C30.5536 8.05469 30.3323 7.61198 30.0719 7.03906C30.5667 7.03906 31.1135 7.03906 31.7125 7.03906C32.2854 7.03906 32.8193 7.02604 33.3141 7C33.887 6.97396 34.4599 6.94792 35.0328 6.92188C35.0068 6.50521 34.9938 6.0625 34.9938 5.59375C34.9677 5.22917 34.9547 4.82552 34.9547 4.38281C34.9547 3.91406 34.9417 3.48438 34.9156 3.09375C34.9156 2.9375 35.0979 2.75521 35.4625 2.54688C35.8531 2.3125 36.2698 2.10417 36.7125 1.92188C37.1552 1.73958 37.5589 1.6224 37.9234 1.57031C38.3141 1.51823 38.5094 1.60938 38.5094 1.84375C38.5094 2.07812 38.4964 2.65104 38.4703 3.5625C38.4703 4.44792 38.4443 5.52865 38.3922 6.80469C38.6526 6.80469 38.8479 6.79167 38.9781 6.76562C40.3583 6.71354 41.4651 6.66146 42.2984 6.60938C43.1578 6.53125 43.8609 6.51823 44.4078 6.57031C44.9547 6.6224 45.4365 6.7526 45.8531 6.96094C46.2698 7.16927 46.7385 7.50781 47.2594 7.97656C47.4417 8.13281 47.5979 8.30208 47.7281 8.48438C47.8583 8.64062 47.9625 8.82292 48.0406 9.03125C48.1448 9.21354 48.1969 9.40885 48.1969 9.61719ZM45.0687 13.1719C45.0687 13.0156 45.2771 12.8464 45.6937 12.6641C46.1104 12.4818 46.5661 12.3385 47.0609 12.2344C47.5818 12.1042 48.0505 12.0391 48.4672 12.0391C48.9099 12.013 49.1312 12.1042 49.1312 12.3125C49.1312 12.7031 49.1052 13.263 49.0531 13.9922C49.001 14.6953 48.9359 15.4505 48.8578 16.2578C48.7797 17.0391 48.7016 17.8333 48.6234 18.6406C48.5453 19.4219 48.4932 20.0859 48.4672 20.6328C48.4151 21.2057 48.363 21.8307 48.3109 22.5078C48.2589 23.0807 48.2198 23.7188 48.1937 24.4219C48.1677 25.125 48.1677 25.8411 48.1937 26.5703C48.1937 26.7005 48.0635 26.8307 47.8031 26.9609C47.5427 27.0911 47.2562 27.1823 46.9437 27.2344C46.6312 27.3125 46.3318 27.3516 46.0453 27.3516C45.7589 27.3516 45.6026 27.2995 45.5766 27.1953C45.5245 27.0911 45.4724 26.9089 45.4203 26.6484C45.3682 26.388 45.3161 26.0234 45.2641 25.5547C45.212 25.0599 45.1729 24.4349 45.1469 23.6797C45.1208 22.8984 45.1339 21.9609 45.1859 20.8672C45.2901 18.7057 45.3031 17.0391 45.225 15.8672C45.1469 14.6693 45.0948 13.7708 45.0687 13.1719ZM47.8031 5.39844C48.324 5.39844 48.8187 5.55469 49.2875 5.86719C49.7562 6.17969 49.9906 6.59635 49.9906 7.11719C49.9906 7.50781 49.8865 7.88542 49.6781 8.25C49.4958 8.61458 49.2615 8.9401 48.975 9.22656C48.6885 9.51302 48.363 9.7474 47.9984 9.92969C47.6339 10.0859 47.2953 10.1641 46.9828 10.1641C46.5661 10.1641 46.2276 10.099 45.9672 9.96875C45.7068 9.8125 45.4984 9.64323 45.3422 9.46094C45.212 9.2526 45.1208 9.03125 45.0687 8.79688C45.0167 8.5625 44.9906 8.34115 44.9906 8.13281C44.9906 7.8724 45.0297 7.58594 45.1078 7.27344C45.1859 6.9349 45.3292 6.63542 45.5375 6.375C45.7458 6.08854 46.0323 5.85417 46.3969 5.67188C46.7615 5.48958 47.2302 5.39844 47.8031 5.39844ZM46.8266 9.03125C46.9828 9.03125 47.1521 8.97917 47.3344 8.875C47.5427 8.74479 47.725 8.60156 47.8812 8.44531C48.0635 8.28906 48.2068 8.11979 48.3109 7.9375C48.4411 7.75521 48.5062 7.59896 48.5062 7.46875C48.5062 7.26042 48.4021 7.15625 48.1937 7.15625C48.0635 7.15625 47.8943 7.20833 47.6859 7.3125C47.5036 7.41667 47.3214 7.54688 47.1391 7.70312C46.9568 7.83333 46.8005 7.98958 46.6703 8.17188C46.5661 8.32812 46.5141 8.48438 46.5141 8.64062C46.5141 8.90104 46.6182 9.03125 46.8266 9.03125ZM60.3391 19.9297C59.8964 20.2943 59.649 20.9453 59.5969 21.8828C59.5708 22.7943 59.7271 23.7318 60.0656 24.6953C60.4302 25.6328 60.9771 26.4661 61.7062 27.1953C62.4354 27.9245 63.3469 28.2891 64.4406 28.2891C65.1437 28.2891 65.7427 28.1198 66.2375 27.7812C66.7583 27.4427 67.175 27.026 67.4875 26.5312C67.826 26.0104 68.0734 25.4375 68.2297 24.8125C68.3859 24.1875 68.4641 23.5755 68.4641 22.9766C68.4641 22.1172 68.2948 21.401 67.9562 20.8281C67.6437 20.2552 67.2141 19.7604 66.6672 19.3438C66.1464 18.901 65.5344 18.5365 64.8312 18.25C64.1542 17.9375 63.4641 17.625 62.7609 17.3125C62.1099 17.0521 61.3286 16.7266 60.4172 16.3359C59.5057 15.9193 58.6333 15.3854 57.8 14.7344C56.9667 14.0573 56.2505 13.237 55.6516 12.2734C55.0786 11.2839 54.7922 10.0729 54.7922 8.64062C54.7922 7.70312 55.0396 6.7526 55.5344 5.78906C56.0292 4.82552 56.7323 3.95312 57.6437 3.17188C58.5552 2.36458 59.649 1.71354 60.925 1.21875C62.2271 0.723958 63.6854 0.476562 65.3 0.476562C66.8885 0.476562 68.1776 0.619792 69.1672 0.90625C70.1568 1.19271 70.925 1.57031 71.4719 2.03906C72.0187 2.48177 72.3833 2.97656 72.5656 3.52344C72.774 4.04427 72.8781 4.53906 72.8781 5.00781C72.8781 5.47656 72.7349 5.95833 72.4484 6.45312C72.162 6.92188 71.8234 7.36458 71.4328 7.78125C71.0422 8.17188 70.6385 8.52344 70.2219 8.83594C69.8052 9.1224 69.4667 9.31771 69.2062 9.42188C69.3365 9.08333 69.4667 8.61458 69.5969 8.01562C69.7271 7.41667 69.688 6.81771 69.4797 6.21875C69.2974 5.61979 68.8417 5.09896 68.1125 4.65625C67.4094 4.21354 66.2635 3.99219 64.675 3.99219C63.7635 3.99219 62.8781 4.13542 62.0187 4.42188C61.1594 4.70833 60.3911 5.08594 59.7141 5.55469C59.063 5.9974 58.5422 6.50521 58.1516 7.07812C57.7609 7.65104 57.5656 8.23698 57.5656 8.83594C57.5656 9.40885 57.7609 9.94271 58.1516 10.4375C58.5682 10.9062 59.1151 11.362 59.7922 11.8047C60.4953 12.2214 61.2896 12.638 62.175 13.0547C63.0865 13.4714 64.037 13.888 65.0266 14.3047C65.9901 14.7214 66.9406 15.1771 67.8781 15.6719C68.8156 16.1406 69.649 16.6875 70.3781 17.3125C71.1333 17.9375 71.7323 18.6406 72.175 19.4219C72.6177 20.2031 72.8391 21.1016 72.8391 22.1172C72.8391 23.2109 72.6307 24.2656 72.2141 25.2812C71.8234 26.2708 71.2505 27.1432 70.4953 27.8984C69.7661 28.6536 68.8677 29.2526 67.8 29.6953C66.7323 30.1641 65.5214 30.3984 64.1672 30.3984C62.9693 30.3984 61.8365 30.2031 60.7687 29.8125C59.701 29.4219 58.7635 28.9141 57.9562 28.2891C57.175 27.6641 56.55 26.974 56.0812 26.2188C55.6125 25.4635 55.3781 24.7214 55.3781 23.9922C55.3781 23.2109 55.5474 22.5469 55.8859 22C56.2505 21.4531 56.6932 21.0234 57.2141 20.7109C57.7349 20.3724 58.2687 20.138 58.8156 20.0078C59.3885 19.8776 59.8964 19.8516 60.3391 19.9297ZM83.7734 27.4297C81.9505 27.4297 80.5443 26.8177 79.5547 25.5938C78.5651 24.3698 78.0703 22.7682 78.0703 20.7891C78.0703 19.4089 78.2656 18.1198 78.6562 16.9219C79.0729 15.6979 79.6198 14.6432 80.2969 13.7578C80.974 12.8724 81.7552 12.1823 82.6406 11.6875C83.5521 11.1667 84.5026 10.9062 85.4922 10.9062C86.4557 10.9062 87.276 11.2578 87.9531 11.9609C88.6302 12.638 88.9688 13.6146 88.9688 14.8906C88.9688 15.724 88.7865 16.5573 88.4219 17.3906C88.0573 18.1979 87.5755 18.9271 86.9766 19.5781C86.4036 20.2031 85.7656 20.7109 85.0625 21.1016C84.3594 21.4922 83.6823 21.6875 83.0312 21.6875C82.6146 21.6875 82.263 21.6354 81.9766 21.5312C81.6901 21.4271 81.4297 21.2708 81.1953 21.0625C81.2734 22.5469 81.599 23.5885 82.1719 24.1875C82.7448 24.7604 83.487 25.0469 84.3984 25.0469C85.0234 25.0469 85.5703 24.9167 86.0391 24.6562C86.5339 24.3958 86.9505 24.0964 87.2891 23.7578C87.6276 23.4193 87.901 23.0807 88.1094 22.7422C88.3177 22.3776 88.4609 22.1042 88.5391 21.9219C88.6172 21.7656 88.7474 21.6875 88.9297 21.6875C89.138 21.6875 89.2422 21.8438 89.2422 22.1562C89.2422 22.4427 89.138 22.8854 88.9297 23.4844C88.7474 24.0573 88.4349 24.6432 87.9922 25.2422C87.5495 25.8151 86.9766 26.3229 86.2734 26.7656C85.5964 27.2083 84.763 27.4297 83.7734 27.4297ZM85.5703 12.5859C85.4141 12.5859 85.1146 12.7552 84.6719 13.0938C84.2552 13.4062 83.7995 13.875 83.3047 14.5C82.8359 15.125 82.3932 15.8802 81.9766 16.7656C81.5859 17.625 81.3385 18.6016 81.2344 19.6953C82.7969 19.3307 84.0339 18.7578 84.9453 17.9766C85.8568 17.1953 86.3125 16.0495 86.3125 14.5391C86.3125 13.7839 86.2214 13.276 86.0391 13.0156C85.8568 12.7292 85.7005 12.5859 85.5703 12.5859ZM99.7469 24.9688C99.9812 24.9688 100.294 24.5521 100.684 23.7188C101.075 22.8854 101.44 21.8828 101.778 20.7109C102.143 19.5391 102.429 18.3281 102.637 17.0781C102.872 15.8281 102.937 14.7734 102.833 13.9141C102.781 13.6276 102.703 13.3932 102.598 13.2109C102.52 13.0286 102.416 12.8333 102.286 12.625C102.442 12.4167 102.637 12.2604 102.872 12.1562C103.106 12.026 103.328 11.9349 103.536 11.8828C103.796 11.8047 104.057 11.7526 104.317 11.7266C104.942 11.7005 105.398 11.8047 105.684 12.0391C105.841 12.1953 105.919 12.5599 105.919 13.1328C105.919 13.7057 105.854 14.3828 105.723 15.1641C105.619 15.9193 105.463 16.7266 105.255 17.5859C105.072 18.4193 104.864 19.1875 104.63 19.8906C104.395 20.5677 104.109 21.3099 103.77 22.1172C103.432 22.8984 103.08 23.6536 102.716 24.3828C102.351 25.0859 101.986 25.6979 101.622 26.2188C101.257 26.7135 100.945 27.013 100.684 27.1172C100.137 27.3255 99.5906 27.4297 99.0437 27.4297C98.5229 27.4297 98.1974 27.3646 98.0672 27.2344C98.0151 27.1823 97.8979 27 97.7156 26.6875C97.5333 26.375 97.325 25.9714 97.0906 25.4766C96.8823 24.9818 96.6479 24.4089 96.3875 23.7578C96.1531 23.0807 95.9448 22.3646 95.7625 21.6094C95.5802 20.8542 95.45 20.0339 95.3719 19.1484C95.2937 18.263 95.2026 17.4036 95.0984 16.5703C95.0203 15.7109 94.9031 14.9167 94.7469 14.1875C94.5906 13.4583 94.3562 12.8594 94.0437 12.3906L95.8797 11.6484C96.0359 11.5703 96.2182 11.5052 96.4266 11.4531C96.6349 11.375 96.8432 11.349 97.0516 11.375C97.2599 11.401 97.4422 11.5052 97.5984 11.6875C97.7807 11.8438 97.8979 12.1302 97.95 12.5469C98.0021 13.0156 98.0411 13.5755 98.0672 14.2266C98.1193 14.8776 98.1583 15.5547 98.1844 16.2578C98.2365 16.9609 98.2885 17.6641 98.3406 18.3672C98.3927 19.0443 98.4448 19.6562 98.4969 20.2031C98.549 20.776 98.6141 21.349 98.6922 21.9219C98.7964 22.4948 98.9005 23.0026 99.0047 23.4453C99.1349 23.888 99.2521 24.2526 99.3562 24.5391C99.4865 24.8255 99.6167 24.9688 99.7469 24.9688ZM122.088 25.0078C122.14 25.1901 122.218 25.3594 122.322 25.5156C122.4 25.6458 122.504 25.776 122.634 25.9062C122.791 26.0104 122.973 26.0755 123.181 26.1016C122.999 26.4661 122.817 26.7135 122.634 26.8438C122.53 26.9219 122.439 26.974 122.361 27C122.127 27.0781 121.775 27.1172 121.306 27.1172C120.838 27.1172 120.382 26.974 119.939 26.6875C119.783 26.5573 119.64 26.362 119.509 26.1016C119.379 25.8932 119.262 25.6068 119.158 25.2422C119.08 24.8516 119.015 24.3568 118.963 23.7578C118.598 24.5391 118.181 25.1641 117.713 25.6328C117.27 26.0755 116.827 26.401 116.384 26.6094C115.89 26.8958 115.382 27.0651 114.861 27.1172C114.21 27.1693 113.585 27.0651 112.986 26.8047C112.413 26.5182 111.918 26.1016 111.502 25.5547C111.111 24.9818 110.811 24.2917 110.603 23.4844C110.395 22.6771 110.33 21.7656 110.408 20.75C110.486 19.6823 110.694 18.7318 111.033 17.8984C111.371 17.0651 111.775 16.3229 112.244 15.6719C112.713 15.0208 113.207 14.474 113.728 14.0312C114.249 13.5625 114.744 13.1849 115.213 12.8984C115.707 12.5859 116.124 12.3646 116.463 12.2344C116.827 12.0781 117.061 11.987 117.166 11.9609C117.452 11.8828 117.699 11.8568 117.908 11.8828C118.116 11.9089 118.298 12.026 118.455 12.2344C118.507 12.3125 118.572 12.4036 118.65 12.5078C118.702 12.612 118.767 12.7552 118.845 12.9375C118.923 13.0938 118.989 13.276 119.041 13.4844C118.416 13.7708 117.83 14.0964 117.283 14.4609C116.736 14.7995 116.228 15.2161 115.759 15.7109C115.317 16.2057 114.926 16.8047 114.588 17.5078C114.249 18.2109 113.989 19.0703 113.806 20.0859C113.546 21.362 113.611 22.3906 114.002 23.1719C114.418 23.9531 114.978 24.2786 115.681 24.1484C116.098 24.0182 116.502 23.7708 116.892 23.4062C117.231 23.0938 117.582 22.625 117.947 22C118.338 21.375 118.702 20.5156 119.041 19.4219C119.171 17.8594 119.275 16.6354 119.353 15.75C119.457 14.8385 119.548 14.1484 119.627 13.6797C119.731 13.1328 119.809 12.7682 119.861 12.5859C119.939 12.4557 120.095 12.3385 120.33 12.2344C120.564 12.1042 120.824 12 121.111 11.9219C121.397 11.8438 121.658 11.8047 121.892 11.8047C122.127 11.7786 122.283 11.7786 122.361 11.8047C122.413 11.8307 122.439 12.1562 122.439 12.7812C122.439 13.3802 122.413 14.1484 122.361 15.0859C122.335 15.9974 122.296 17 122.244 18.0938C122.192 19.1615 122.14 20.1771 122.088 21.1406C122.061 22.1042 122.035 22.9505 122.009 23.6797C122.009 24.3828 122.035 24.8255 122.088 25.0078ZM136.537 17.6641C137.084 17.8984 137.605 18.276 138.1 18.7969C138.595 19.2917 138.907 20.0469 139.037 21.0625C139.142 21.9479 139.285 22.7422 139.467 23.4453C139.649 24.1484 139.91 24.7865 140.248 25.3594C140.587 25.9062 141.03 26.401 141.577 26.8438C142.149 27.2604 142.879 27.625 143.764 27.9375C143.53 28.1458 143.243 28.3151 142.905 28.4453C142.592 28.5755 142.293 28.6667 142.006 28.7188C141.668 28.8229 141.316 28.875 140.952 28.875C140.092 28.9531 139.389 28.8359 138.842 28.5234C138.295 28.237 137.866 27.8073 137.553 27.2344C137.241 26.6615 137.006 25.9974 136.85 25.2422C136.694 24.487 136.577 23.7057 136.498 22.8984C136.472 22.5599 136.433 22.2083 136.381 21.8438C136.329 21.4792 136.238 21.1276 136.108 20.7891C135.978 20.4505 135.795 20.138 135.561 19.8516C135.353 19.5651 135.079 19.3438 134.741 19.1875C134.168 19.6302 133.634 20.0208 133.139 20.3594C132.67 20.6719 132.254 20.9323 131.889 21.1406C131.915 22.5469 131.98 23.7057 132.084 24.6172C132.215 25.5286 132.384 26.1406 132.592 26.4531C132.41 26.5833 132.228 26.7005 132.045 26.8047C131.863 26.8828 131.707 26.9479 131.577 27C131.394 27.0781 131.225 27.1302 131.069 27.1562C130.548 27.3125 130.079 27.2865 129.662 27.0781C129.272 26.8958 129.064 26.388 129.037 25.5547L128.803 2.74219C128.803 2.53385 128.998 2.32552 129.389 2.11719C129.806 1.88281 130.261 1.70052 130.756 1.57031C131.251 1.4401 131.694 1.375 132.084 1.375C132.501 1.375 132.696 1.49219 132.67 1.72656C132.592 3.52344 132.514 5.21615 132.436 6.80469C132.358 8.39323 132.293 9.79948 132.241 11.0234C132.162 12.4557 132.097 13.7578 132.045 14.9297C131.993 15.6328 131.954 16.3099 131.928 16.9609C131.928 17.612 131.915 18.237 131.889 18.8359C132.384 18.4453 132.905 18.0156 133.452 17.5469C133.998 17.0781 134.519 16.5573 135.014 15.9844C135.509 15.4115 135.926 14.7995 136.264 14.1484C136.603 13.4714 136.798 12.7552 136.85 12C137.136 11.7917 137.423 11.6224 137.709 11.4922C138.022 11.3359 138.295 11.2188 138.53 11.1406C138.816 11.0365 139.077 10.9844 139.311 10.9844C139.91 10.9583 140.261 11.0885 140.366 11.375C140.444 11.5833 140.431 11.8958 140.327 12.3125C140.248 12.7031 140.053 13.1849 139.741 13.7578C139.454 14.3047 139.051 14.9167 138.53 15.5938C138.009 16.2448 137.345 16.9349 136.537 17.6641Z" fill="#001723"/>
</svg>
